<?xml version="1.0" encoding="UTF-8"?>
<svg width="700pt" height="700pt" version="1.1" viewBox="0 0 700 700" xmlns="http://www.w3.org/2000/svg" xmlns:xlink="http://www.w3.org/1999/xlink">
 <g>
  <path d="m212.0 51.41c-2.9844-2.9922-6.9805-4.75-11.203-4.9258-4.5 0.10156-8.7812 1.9648-11.922 5.1914s-4.8945 7.5547-4.875 12.055v65.074c0.027344 2.4297-1.7422 4.5078-4.1445 4.8711-1.3086 0.125-2.6094-0.30469-3.582-1.1914-0.96875-0.88672-1.5195-2.1406-1.5156-3.457v-102.54c-0.03125-4.4141-1.8047-8.6406-4.9258-11.762-2.957-3.0195-6.9766-4.7656-11.203-4.8711-4.5 0.10156-8.7812 1.9688-11.922 5.1914-3.1406 3.2266-4.8945 7.5547-4.875 12.059v89.602-0.003906c0.027344 2.4297-1.7422 4.5117-4.1445 4.8711-1.3008 0.12891-2.5898-0.29688-3.5625-1.1719-0.96875-0.875-1.5234-2.1133-1.5352-3.418v-100.18c0.003906-4.5938-1.8711-8.9922-5.1953-12.168-3.3203-3.1719-7.7969-4.8477-12.387-4.6328-4.5078 0.089844-8.7969 1.9492-11.941 5.1758-3.1445 3.2305-4.8906 7.5664-4.8594 12.07v99.625c0.027344 2.4297-1.7422 4.5117-4.1445 4.8711-1.3008 0.12891-2.5898-0.29688-3.5586-1.1719s-1.5273-2.1133-1.5391-3.418v-79.746c0.003906-4.3867-1.7148-8.6016-4.7812-11.742-3.0664-3.1367-7.2383-4.9531-11.625-5.0547-4.5078 0.085937-8.7969 1.9453-11.941 5.1758-3.1445 3.2266-4.8906 7.5625-4.8594 12.07v125.27l-16.801-22.68c-3.2656-4.3047-8.1055-7.1367-13.457-7.8828s-10.781 0.66016-15.102 3.9062c-4.1055 3.1328-6.875 7.7031-7.7461 12.793-0.87109 5.0938 0.21484 10.324 3.043 14.645l30.574 48.891c2.7109 4.2734 5.0898 8.7461 7.1133 13.383l0.55859 1.2891c32.594 73.809 139.16 68.207 163.8-8.625 6.0547-18.84 9.1328-38.508 9.1289-58.297v-97.383c-0.019532-4.4062-1.7695-8.6289-4.8711-11.762z"/>
 </g>
</svg>
