<?xml version="1.0" encoding="UTF-8"?>
<svg width="700pt" height="700pt" version="1.1" viewBox="0 0 700 700" xmlns="http://www.w3.org/2000/svg" xmlns:xlink="http://www.w3.org/1999/xlink">
 <g>
  <path d="m123.46 270.07c3.8594 1.9805 8.2969 2.5156 12.516 1.5195 9.2969-3.5234 6.5625-17.375 1.6406-26.004-26.246-46.176-66.832-84.09-86.457-133.67-3.7656-9.3555-4.8008-23.211 4.7383-26.488 7.2305-2.4922 14.277 3.707 19.383 9.418 33.258 37.207 64.086 76.516 92.289 117.68 4.5586 6.5625 13.184 13.973 19.262 8.6875 4.6172-3.9492 2.4297-11.422 0-16.953-25.398-53.645-53.648-106.2-70.965-162.95-2.1641-5.207-2.4844-10.992-0.91016-16.406 2.125-5.1641 9.6016-8.2617 13.488-4.1914 44.656 46.055 62.094 111.37 94.051 167.02 3.4648 6.0742 11.059 12.82 16.344 8.1406-7.2891-58.207-13.062-116.59-17.316-175.16-0.48438-6.4414-0.54688-13.852 4.3125-18.227h0.003906c3.082-2.0586 6.832-2.8672 10.488-2.2539 3.6602 0.60938 6.9453 2.5859 9.1953 5.5352 4.2773 6.1055 6.875 13.23 7.5352 20.656 12.152 70.66 22.906 142.11 47.754 209.37 2.6484 9.3203 7.8203 17.73 14.945 24.301 7.6562 6.0742 20.109 6.5625 26.066-1.0312 13.367-17.254 27.219-34.812 45.75-46.359 32.566-17.742 50.062-15.613 66.164-1.0938-14.094 17.195-20.355 28.008-32.324 42.531-35.906 44.23-40.465 108.33-78.133 151.1-10.328 11.664-9.9648 28.98-9.0547 44.535 2.1875 36.453 4.3359 73.051 6.4414 109.79-10.797-47.297-13.773-96.039-8.8086-144.3-12.992 11.602-29.418 18.645-46.781 20.047 20.477-9.7812 41.438-19.93 56.93-36.453 21.082-22.723 28.98-54.195 40.465-82.996 14.945-37.426 38.945-70.844 63.672-101.95-7.2305-10.691-21.871-9.7227-34.207-6.0742-27.004 8.4727-49.633 27.156-63.066 52.066-6.4414 12.152-24.91 12.516-35.785 4.2539s-15.859-21.934-20.172-34.934c-22.844-70.902-35.727-144.54-48.605-217.94-1.1562-6.0742-11.363-6.6836-15.371-1.5781-3.2969 5.6445-4.3398 12.328-2.918 18.711l16.953 165.87c0.66797 6.6211-8.2031 10.816-14.398 8.3242h-0.003907c-5.8672-3.2656-10.406-8.4922-12.816-14.762-28.801-56.32-48.605-118.84-91.441-165.26-9.7227 7.4141-5.5898 22.723-0.48438 33.844l64.887 142.29c4.4961 9.7812 7.3516 24.305-2.4922 28.738-8.6875 3.8867-17.316-5.043-22.785-12.82h0.003906c-28.23-40.605-58.973-79.406-92.047-116.17-4.9219-5.5273-14.887-10.633-18.227-4.0703h-0.003907c-1.1172 3.0195-0.92187 6.3672 0.54688 9.2344 19.078 52.738 62.578 92.715 89.922 141.69 3.7656 6.8047 7.2891 14.945 4.1328 21.996v-0.003907c-1.75 3.1016-4.3672 5.6211-7.5273 7.25-3.1641 1.6328-6.7344 2.3008-10.273 1.9258-7.0117-0.73437-13.816-2.7969-20.051-6.0781-28.004-12.664-56.754-23.602-86.094-32.746-5.5898-1.7617-13.426-2.4922-15.676 2.9766 9.4766 13.305 25.52 19.93 40.344 26.793 30.379 14.094 59.664 32.262 81.234 57.902 16.648 19.867 28.312 43.746 45.992 62.703 16.039 17.195 37.305 30.926 45.992 52.797 3.6523 10.707 5.6016 21.922 5.7734 33.234 1.8242 27.34 3.3008 54.68 4.4336 82.023-5.7734-0.125-7.5938-7.7188-7.5938-13.488-0.54687-18.227-1.0312-36.453-1.5781-54.68-0.42578-16.281-1.0312-33.051-7.6562-47.938-10.875-24.305-35.605-38.824-52.555-59.301-8.0195-9.7812-14.219-20.84-21.387-31.23h-0.003906c-19.582-28.602-45.727-52.102-76.25-68.535-14.582-7.8359-29.953-14.035-44.23-22.359-6.543-2.9258-11.645-8.3516-14.156-15.066-1.6406-6.8672 5.1641-15.613 11.242-13.004z"/>
  <path d="m270.68 264.66c-8.7148 6.7578-15.852 15.344-20.898 25.152-12.289 21.102-21.668 43.766-27.887 67.379-0.36328 1.3984-2.5508 1.2773-3.3398 0h-0.003906c-0.64453-1.2578-0.77344-2.7188-0.36328-4.0703 2.4414-10.648 5.9844-21.012 10.57-30.926 8.3828-19.988 17.195-40.523 32.504-55.836 2.6133-2.4922 7.3516-4.7383 9.418-1.6992z"/>
 </g>
</svg>
