<?xml version="1.0" encoding="UTF-8"?>
<svg width="700pt" height="700pt" version="1.1" viewBox="0 0 700 700" xmlns="http://www.w3.org/2000/svg" xmlns:xlink="http://www.w3.org/1999/xlink">
 <g>
  <path fill="white" d="m502.01 181.53-0.27344 0.375-0.20703 0.41406c-1.832 3.793-6.4922 11.598-12.395 21.516-22.121 37.195-47.188 93.824-52.164 132.93-17.914 140.9-75.141 148.78-141.79 148.78-68.453 0-113.21-30.871-151.35-64.23l-134.17-117.24c-9.4297-8.3828-10.266-22.875-1.8711-32.301 4.4141-4.9492 10.578-7.5781 16.918-7.5781 3.2188 0 6.4805 0.67578 9.5742 2.0781l0.054687-0.11719c1.4844 0.73828 13.301 6.5898 45.555 22.707 15.559 7.7617 49.348 23.309 70.379 23.309 4.5078 0 8.418-0.71875 11.434-2.3633 25.082-13.621 13.848-62.637-7.6719-141.75l-27.766-102.29c-1.832-6.1953-1.1523-12.711 1.9492-18.379 3.0977-5.668 8.2031-9.8008 14.414-11.637 2.2695-0.66016 4.5703-1.0039 6.875-1.0039 3.9766 0 7.9336 1.0039 11.523 2.9609 5.668 3.0977 9.7891 8.1758 11.676 14.621l43.797 126.24c7.7578 22.191 12.965 29.863 20.996 29.863 0.71875 0 1.457-0.066406 2.2109-0.19141 8.9531-1.3828 10.785-9.9336 11.043-25.297l2.375-158.34c0-13.316 10.84-24.148 24.152-24.148 13.332 0 24.176 10.836 24.176 24.246l2.9609 151.13c0.37891 15.176 2.2969 30.98 13.586 33.219 0.87891 0.17969 1.7305 0.26172 2.5469 0.26172 13.027 0 17.672-21.676 19.504-30.156l25.641-122.01c1.082-6.3672 4.5977-11.898 9.8789-15.602 4.1094-2.9023 8.9219-4.4023 13.848-4.4023 1.4102 0 2.8164 0.11328 4.2344 0.35938 6.3555 1.1133 11.91 4.6328 15.629 9.918 3.7031 5.2695 5.1406 11.68 4.0078 18.195l-20.793 145.23c-1.3281 9.2734 1.8555 17.113 8.0938 19.945 1.5977 0.71875 3.2461 1.0742 4.9453 1.0742 4.4336 0 9.082-2.4766 13.184-7.2422l50.309-67.324c3.2383-4.4141 8.0039-7.2812 13.395-8.1133 1.0312-0.15625 2.0664-0.23438 3.0898-0.23438 4.3398 0 8.5508 1.3711 12.113 3.9922 4.4141 3.2422 7.3008 8.0039 8.125 13.395 0.84375 5.4062-0.49219 10.805-3.7383 15.199z"/>
 </g>
</svg>
